<?xml version="1.0" encoding="utf-8"?>
<!-- Generator: Adobe Illustrator 16.0.0, SVG Export Plug-In . SVG Version: 6.00 Build 0)  -->
<!DOCTYPE svg PUBLIC "-//W3C//DTD SVG 1.1//EN" "http://www.w3.org/Graphics/SVG/1.1/DTD/svg11.dtd">
<svg version="1.1" id="Layer_1" xmlns="http://www.w3.org/2000/svg" xmlns:xlink="http://www.w3.org/1999/xlink" x="0px" y="0px"
	 width="65.206px" height="64.903px" viewBox="0 0 65.206 64.903" enable-background="new 0 0 65.206 64.903" xml:space="preserve">
<g id="O">
	<g>
		<path fill="#E57E25" d="M32.574,0.18c3.034,0,5.754,1.379,7.555,3.539l22.196,22.196c3.842,3.844,3.842,10.072,0,13.912
			c-0.587,0.586-1.225,1.082-1.908,1.488L40.129,21.026c-1.801-2.161-4.521-3.542-7.555-3.542c-3.162,0-5.961,1.493-7.762,3.808
			L4.79,41.315c-0.684-0.406-1.322-0.902-1.908-1.488c-3.843-3.84-3.843-10.068,0-13.912L24.813,3.984
			C26.613,1.67,29.412,0.18,32.574,0.18z"/>
	</g>
	<path fill="#E57E25" d="M26.153,27.046L3.853,49.35c-1.714,1.712-2.655,3.986-2.655,6.411c0,2.421,0.941,4.696,2.655,6.41
		c1.714,1.711,3.99,2.654,6.411,2.654c2.423,0,4.698-0.943,6.411-2.654l15.89-15.89l15.968,15.966
		c1.713,1.713,3.989,2.656,6.411,2.656s4.699-0.943,6.412-2.656c1.712-1.712,2.653-3.987,2.653-6.412
		c0-2.42-0.941-4.697-2.653-6.409l-22.379-22.38c-1.712-1.71-3.986-2.652-6.41-2.654C30.144,24.392,27.868,25.336,26.153,27.046z"/>
</g>
</svg>
